<svg xmlns="http://www.w3.org/2000/svg" viewBox="0 0 128 128" role="img" aria-label="مرصد المخاطر">
  <defs>
    <linearGradient id="bg" x1="0" y1="0" x2="1" y2="1"><stop stop-color="#173a56"/><stop offset="1" stop-color="#06131f"/></linearGradient>
    <clipPath id="lens"><path d="M8 64C24 34 43 22 64 22s40 12 56 42c-16 30-35 42-56 42S24 94 8 64Z"/></clipPath>
  </defs>
  <rect width="128" height="128" rx="27" fill="#fbfaf6"/>
  <path d="M8 64C24 34 43 22 64 22s40 12 56 42c-16 30-35 42-56 42S24 94 8 64Z" fill="url(#bg)"/>
  <path d="M14 64C28 39 45 29 64 29s36 10 50 35c-14 25-31 35-50 35S28 89 14 64Z" fill="none" stroke="#d9bb67" stroke-width="3"/>
  <g clip-path="url(#lens)" fill="none" stroke="#d9bb67" opacity=".3">
    <circle cx="64" cy="64" r="15"/><circle cx="64" cy="64" r="29"/><circle cx="64" cy="64" r="43"/>
    <path d="M20 64h88M64 24v80"/>
  </g>
  <path d="M64 64 91 43" stroke="#d9bb67" stroke-width="6" stroke-linecap="round" opacity=".8"/>
  <circle cx="91" cy="43" r="8" fill="#b64f3d" stroke="#fff4d2" stroke-width="3"/>
</svg>
