<svg xmlns="http://www.w3.org/2000/svg" viewBox="0 0 128 128" role="img" aria-label="مرصد المخاطر">
  <defs>
    <linearGradient id="g" x1="0" y1="0" x2="1" y2="1"><stop stop-color="#10283e"/><stop offset="1" stop-color="#071725"/></linearGradient>
  </defs>
  <rect width="128" height="128" rx="28" fill="#fbfaf6"/>
  <path d="M64 12c19 12 37 15 52 17v39c0 26-16 45-52 59-36-14-52-33-52-59V29c15-2 33-5 52-17Z" fill="url(#g)"/>
  <path d="M64 23c15 9 28 12 41 14v31c0 21-12 36-41 48-29-12-41-27-41-48V37c13-2 26-5 41-14Z" fill="none" stroke="#d9bb67" stroke-width="2.5"/>
  <g transform="translate(64 66)" fill="none" stroke="#d9bb67" stroke-width="5" stroke-linecap="round">
    <path d="M-28 0a28 28 0 0 1 56 0" opacity=".4"/>
    <path d="M-17 0a17 17 0 0 1 34 0"/>
  </g>
  <path d="M64 66 88 45" stroke="#d9bb67" stroke-width="5" stroke-linecap="round"/>
  <circle cx="64" cy="66" r="7" fill="#b64f3d" stroke="#fff7df" stroke-width="3"/>
</svg>
