<svg xmlns="http://www.w3.org/2000/svg" width="1200" height="630" viewBox="0 0 1200 630" role="img" aria-labelledby="t d">
  <title id="t">مرصد المخاطر المؤسسية</title>
  <desc id="d">أداة تفاعلية لتحديد المخاطر وتقييمها ومعالجتها ومتابعتها</desc>
  <defs>
    <linearGradient id="bg" x1="0" y1="0" x2="1" y2="1"><stop stop-color="#fffdf7"/><stop offset="1" stop-color="#f0eee6"/></linearGradient>
    <linearGradient id="navy" x1="0" y1="0" x2="1" y2="1"><stop stop-color="#122b43"/><stop offset="1" stop-color="#061521"/></linearGradient>
    <filter id="s" x="-30%" y="-30%" width="160%" height="160%"><feDropShadow dx="0" dy="18" stdDeviation="18" flood-color="#071725" flood-opacity=".2"/></filter>
  </defs>
  <rect width="1200" height="630" fill="url(#bg)"/>
  <circle cx="105" cy="86" r="170" fill="#d9bb67" opacity=".08"/>
  <circle cx="1120" cy="570" r="245" fill="#0b1a2b" opacity=".045"/>
  <g transform="translate(760 92)" filter="url(#s)">
    <path d="M150 0c52 31 101 42 143 45v112c0 88-54 151-143 189C61 308 7 245 7 157V45C49 42 98 31 150 0Z" fill="url(#navy)"/>
    <path d="M150 24c42 24 82 34 118 37v96c0 69-40 120-118 155C72 277 32 226 32 157V61c36-3 76-13 118-37Z" fill="none" stroke="#d9bb67" stroke-width="4"/>
    <g transform="translate(150 152)" fill="none" stroke="#d9bb67" stroke-width="10" stroke-linecap="round">
      <path d="M-78 0a78 78 0 0 1 156 0" opacity=".32"/>
      <path d="M-52 0a52 52 0 0 1 104 0" opacity=".62"/>
      <path d="M-27 0a27 27 0 0 1 54 0"/>
    </g>
    <path d="M150 152 214 94" stroke="#d9bb67" stroke-width="9" stroke-linecap="round"/>
    <circle cx="150" cy="152" r="14" fill="#b64f3d" stroke="#fff7df" stroke-width="5"/>
    <g transform="translate(82 235)">
      <rect width="28" height="28" rx="5" fill="#dce8df"/><rect x="36" width="28" height="28" rx="5" fill="#eadcae"/><rect x="72" width="28" height="28" rx="5" fill="#eac181"/><rect x="108" width="28" height="28" rx="5" fill="#df9563"/><rect x="144" width="28" height="28" rx="5" fill="#b64f3d"/>
    </g>
  </g>
  <g text-anchor="end" font-family="Tajawal, 'IBM Plex Sans Arabic', Arial, sans-serif">
    <text x="675" y="226" font-size="76" font-weight="800" fill="#0b1a2b">مرصد المخاطر</text>
    <text x="675" y="301" font-size="42" font-weight="700" fill="#987329">المخاطر المؤسسية</text>
    <path d="M110 344h565" stroke="#d9bb67" stroke-width="4"/>
    <text x="675" y="405" font-size="28" font-weight="500" fill="#536273">من تسجيل الخطر حتى تقرير مجلس الإدارة</text>
    <text x="675" y="458" font-size="21" font-weight="500" fill="#778392">تحديد · تقييم · معالجة · متابعة</text>
  </g>
  <text x="110" y="560" font-family="Arial, sans-serif" font-size="20" font-weight="700" fill="#0b1a2b">almohammdin.github.io/risk-register</text>
</svg>
