<?xml version="1.0" encoding="UTF-8" standalone="no"?>
<svg
   width="720"
   height="360"
   viewBox="0 0 720 360"
   role="img"
   aria-labelledby="title desc"
   version="1.1"
   id="svg84"
   xmlns="http://www.w3.org/2000/svg"
   xmlns:svg="http://www.w3.org/2000/svg">
  <title
     id="title">مرصد المخاطر المؤسسية</title>
  <desc
     id="desc">هوية بصرية متكاملة على هيئة عدسة رصد تجمع الرادار والخريطة الحرارية</desc>
  <defs
     id="defs26">
    <linearGradient
       id="lens"
       x1="0"
       y1="0"
       x2="1"
       y2="1">
      <stop
         offset="0"
         stop-color="#173a56"
         id="stop4" />
      <stop
         offset="0.55"
         stop-color="#0b1f32"
         id="stop6" />
      <stop
         offset="1"
         stop-color="#06131f"
         id="stop8" />
    </linearGradient>
    <linearGradient
       id="gold"
       x1="0"
       y1="0"
       x2="1"
       y2="0">
      <stop
         offset="0"
         stop-color="#a77b27"
         id="stop11" />
      <stop
         offset="0.48"
         stop-color="#e3c86f"
         id="stop13" />
      <stop
         offset="1"
         stop-color="#a77b27"
         id="stop15" />
    </linearGradient>
    <radialGradient
       id="glow"
       cx="50%"
       cy="44%"
       r="60%">
      <stop
         offset="0"
         stop-color="#2a5d7d"
         stop-opacity="0.72"
         id="stop18" />
      <stop
         offset="1"
         stop-color="#0b1a2b"
         stop-opacity="0"
         id="stop20" />
    </radialGradient>
    <clipPath
       id="lensClip">
      <path
         d="M62 177C143 42 258 22 360 22s217 20 298 155c-81 135-196 155-298 155S143 312 62 177Z"
         id="path23" />
    </clipPath>
  </defs>
  <path
     d="M62 187C143 52 258 32 360 32s217 20 298 155c-81 135-196 155-298 155S143 322 62 187Z"
     fill="#071522"
     opacity="0.16"
     id="path28" />
  <g
     id="g36">
    <path
       d="M 62,177 C 143,42 258,22 360,22 462,22 577,42 658,177 577,312 462,332 360,332 258,332 143,312 62,177 Z"
       fill="url(#lens)"
       id="path30" />
    <path
       d="M 76,177 C 151,57 261,38 360,38 459,38 569,57 644,177 569,297 459,316 360,316 261,316 151,297 76,177 Z"
       fill="none"
       stroke="url(#gold)"
       stroke-width="3"
       id="path32" />
    <path
       d="M 98,177 C 169,77 270,57 360,57 450,57 551,77 622,177 551,277 450,297 360,297 270,297 169,277 98,177 Z"
       fill="url(#glow)"
       stroke="#e3c86f"
       stroke-opacity="0.24"
       id="path34" />
  </g>
  <g
     clip-path="url(#lensClip)"
     fill="none"
     stroke="#d8bd68"
     stroke-width="2"
     opacity="0.15"
     id="g48">
    <path
       id="circle38"
       d="m 422,177 a 62,62 0 0 1 -62,62 62,62 0 0 1 -62,-62 62,62 0 0 1 62,-62 62,62 0 0 1 62,62 z" />
    <path
       id="circle40"
       d="M 464,177 A 104,104 0 0 1 360,281 104,104 0 0 1 256,177 104,104 0 0 1 360,73 104,104 0 0 1 464,177 Z" />
    <path
       id="circle42"
       d="M 508,177 A 148,148 0 0 1 360,325 148,148 0 0 1 212,177 148,148 0 0 1 360,29 148,148 0 0 1 508,177 Z" />
    <path
       d="M 114,177 H 606 M 360,30 v 294"
       id="path44" />
    <path
       d="M 360,177 506,79"
       stroke-width="10"
       opacity="0.17"
       id="path46" />
  </g>
  <g
     opacity="0.72"
     id="g54">
    <path
       id="circle50"
       style="fill:#b64f3d;stroke:#fff4d2;stroke-width:4"
       d="M 518,79 A 12,12 0 0 1 506,91 12,12 0 0 1 494,79 12,12 0 0 1 506,67 12,12 0 0 1 518,79 Z" />
    <path
       id="circle52"
       style="opacity:0.55;fill:none;stroke:#d99788;stroke-width:2"
       d="m 528,79 a 22,22 0 0 1 -22,22 22,22 0 0 1 -22,-22 22,22 0 0 1 22,-22 22,22 0 0 1 22,22 z" />
  </g>
  <g
     transform="translate(126,86)"
     opacity="0.42"
     id="g68">
    <path
       id="rect56"
       style="fill:#d8eadf"
       d="m 3,0 h 8 c 1.662,0 3,1.338 3,3 v 8 c 0,1.662 -1.338,3 -3,3 H 3 C 1.338,14 0,12.662 0,11 V 3 C 0,1.338 1.338,0 3,0 Z" />
    <path
       id="rect58"
       style="fill:#f2e5b7"
       d="m 21,0 h 8 c 1.662,0 3,1.338 3,3 v 8 c 0,1.662 -1.338,3 -3,3 h -8 c -1.662,0 -3,-1.338 -3,-3 V 3 c 0,-1.662 1.338,-3 3,-3 z" />
    <path
       id="rect60"
       style="fill:#efbf8f"
       d="m 39,0 h 8 c 1.662,0 3,1.338 3,3 v 8 c 0,1.662 -1.338,3 -3,3 h -8 c -1.662,0 -3,-1.338 -3,-3 V 3 c 0,-1.662 1.338,-3 3,-3 z" />
    <path
       id="rect62"
       style="fill:#f2e5b7"
       d="m 3,18 h 8 c 1.662,0 3,1.338 3,3 v 8 c 0,1.662 -1.338,3 -3,3 H 3 C 1.338,32 0,30.662 0,29 v -8 c 0,-1.662 1.338,-3 3,-3 z" />
    <path
       id="rect64"
       style="fill:#efbf8f"
       d="m 21,18 h 8 c 1.662,0 3,1.338 3,3 v 8 c 0,1.662 -1.338,3 -3,3 h -8 c -1.662,0 -3,-1.338 -3,-3 v -8 c 0,-1.662 1.338,-3 3,-3 z" />
    <path
       id="rect66"
       style="fill:#d97768"
       d="m 39,18 h 8 c 1.662,0 3,1.338 3,3 v 8 c 0,1.662 -1.338,3 -3,3 h -8 c -1.662,0 -3,-1.338 -3,-3 v -8 c 0,-1.662 1.338,-3 3,-3 z" />
  </g>
  <g
     text-anchor="middle"
     direction="rtl"
     lang="ar"
     font-family="'IBM Plex Sans Arabic'"
     id="g76">
    <g
       aria-label="مرصد"
       id="text70"
       style="font-weight:700;font-size:88px;fill:#fffdf7">
      <path
         d="m 428.94801,179.072 q -2.024,2.728 -5.104,3.872 -2.992,1.056 -7.832,1.056 v -10.56 l 2.64,-2.64 q 3.256,0 4.752,-0.968 1.496,-0.968 2.464,-3.432 l 2.464,-6.072 q 1.144,-2.816 2.552,-5.28 1.408,-2.464 3.344,-4.312 1.936,-1.848 4.312,-2.904 2.464,-1.056 5.632,-1.056 8.272,0 12.408,6.512 4.224,6.512 4.224,18.04 v 2.552 l -8.36,12.408 z m 4.84,-12.232 17.688,5.368 v -0.88 q 0,-5.28 -2.552,-8.272 -2.552,-2.992 -6.952,-2.992 -2.816,0 -4.928,1.496 -2.024,1.496 -3.08,4.752 z"
         id="path99" />
      <path
         d="m 382.57197,191.92 h 3.52 q 8.008,0 11.704,-3.256 3.784,-3.256 3.696,-10.824 0,-2.024 -0.264,-4.224 -0.264,-2.288 -0.704,-4.84 l -1.848,-11.704 9.592,-1.496 1.32,8.184 q 0.352,1.936 0.528,3.696 0.264,1.76 0.44,3.344 h 8.096 v 10.56 l -2.64,2.64 h -5.456 q -1.496,9.768 -7.744,15.4 -6.16,5.72 -16.632,5.72 h -3.608 z"
         id="path101" />
      <path
         d="m 329.15605,164.64 q 0,3.784 2.112,5.192 l 3.872,-6.688 q 3.08,-5.368 6.248,-9.152 3.256,-3.784 6.776,-6.16 3.52,-2.376 7.392,-3.432 3.96,-1.144 8.448,-1.144 10.384,0 15.576,5.72 5.192,5.632 5.192,15.752 0,9.944 -5.632,14.608 -5.632,4.664 -17.776,4.664 h -25.168 q -7.04,0 -10.736,-2.816 -3.608,-2.904 -4.84,-9.064 h -0.528 q -1.232,6.16 -4.224,9.064 -2.992,2.816 -8.712,2.816 v -10.56 l 2.64,-2.64 h 2.64 q 7.04,0 7.04,-6.16 v -5.544 h 9.68 z m 32.208,6.16 q 4.224,0 6.952,-0.264 2.816,-0.352 4.488,-1.056 1.76,-0.792 2.464,-2.112 0.704,-1.32 0.704,-3.432 0,-3.784 -2.464,-5.632 -2.464,-1.848 -8.184,-1.848 h -2.64 q -3.96,0 -6.952,0.352 -2.992,0.264 -5.28,1.144 -2.288,0.88 -4.136,2.464 -1.848,1.584 -3.52,4.136 l -3.784,5.72 0.264,0.528 z"
         id="path103" />
      <path
         d="m 271.428,184 q -6.16,0 -9.416,-3.08 -3.256,-3.08 -3.256,-9.856 v -5.896 h 10.12 v 5.632 h 12.056 q 2.904,0 4.224,-0.88 1.408,-0.88 1.408,-2.904 0,-0.968 -0.44,-2.288 -0.352,-1.32 -0.792,-2.64 l -7.744,-22.264 11.264,-3.96 8.888,25.432 q 0.968,2.904 1.936,4.752 0.968,1.848 2.024,2.904 1.144,1.056 2.376,1.496 1.32,0.352 3.08,0.352 h 2.64 v 10.56 l -2.64,2.64 q -3.696,0 -6.424,-0.528 -2.728,-0.528 -4.928,-1.936 -2.112,-1.408 -3.872,-3.696 -1.672,-2.288 -3.256,-5.896 l -0.352,0.176 q -0.528,3.168 -1.496,5.456 -0.88,2.288 -2.288,3.696 -1.408,1.408 -3.432,2.112 -2.024,0.616 -4.84,0.616 z"
         id="path105" />
    </g>
    <path
       d="M 272,202 H 448"
       stroke="url(#gold)"
       stroke-width="3"
       id="path72" />
    <g
       aria-label="المخاطر المؤسسية"
       id="text74"
       style="font-weight:600;font-size:24px;fill:#dfc879">
      <path
         d="m 445.29603,214.24 h 2.88 V 232 h -2.88 z"
         id="path108" />
      <path
         d="m 436.24802,229.12 0.72,-0.72 h 1.056 q 0.912,0 1.2,-0.336 0.312,-0.36 0.312,-1.104 v -12.72 h 2.88 v 12.72 q 0,2.568 -1.008,3.792 -0.984,1.224 -3.384,1.248 h -1.776 z"
         id="path110" />
      <path
         d="m 421.65602,229.12 0.72,-0.72 h 2.088 q -0.024,-0.144 -0.024,-0.288 0,-0.144 0,-0.288 0,-2.904 3.36,-4.848 l 1.536,-0.888 h 3.168 l 1.896,5.088 q 0.264,0.744 0.648,0.984 0.408,0.24 1.2,0.24 h 0.72 v 2.88 l -0.72,0.72 q -1.584,0 -2.496,-0.48 -0.912,-0.504 -1.512,-1.56 l -0.144,0.024 V 232 h -3.048 q -1.752,0 -2.808,-0.696 -1.056,-0.72 -1.488,-1.8 h -0.216 q -0.672,2.496 -2.88,2.496 z m 4.968,-1.632 q 0,0.528 0.408,0.72 0.408,0.192 0.984,0.192 h 3.528 l -1.2,-3.168 -2.184,0.864 q -0.768,0.312 -1.152,0.648 -0.384,0.312 -0.384,0.744 z"
         id="path112" />
      <path
         d="m 405.528,229.12 0.72,-0.72 h 1.656 q 1.344,0 2.4,-0.024 1.08,-0.048 2.04,-0.192 0.96,-0.144 1.872,-0.432 0.912,-0.288 1.944,-0.792 l 0.888,-0.432 v -0.12 l -3.84,-0.816 -3.624,-0.888 v 1.8 h -2.76 v -1.848 q 0,-1.704 0.72,-2.496 0.744,-0.792 2.256,-0.792 0.192,0 0.384,0.024 0.216,0.024 0.48,0.072 0.288,0.048 0.672,0.144 0.384,0.096 0.96,0.24 l 4.632,1.2 q 0.96,0.264 2.064,0.408 1.104,0.144 2.184,0.144 h 0.48 v 3.6 h -1.68 q 0.024,0.672 0.384,0.936 0.384,0.264 1.296,0.264 h 0.72 v 2.88 l -0.72,0.72 q -1.8,-0.024 -2.808,-0.816 -0.984,-0.816 -1.224,-2.52 l -0.096,0.072 q -1.584,1.08 -2.856,1.728 -1.248,0.624 -2.376,0.984 -1.128,0.336 -2.184,0.456 -1.056,0.096 -2.208,0.096 h -2.376 z m 7.056,-9.672 q -0.624,0 -1.032,-0.384 -0.384,-0.384 -0.384,-1.224 0,-0.84 0.384,-1.224 0.408,-0.384 1.032,-0.384 h 0.48 q 0.624,0 1.008,0.384 0.408,0.384 0.408,1.224 0,0.84 -0.408,1.224 -0.384,0.384 -1.008,0.384 z"
         id="path114" />
      <path
         d="m 405.50398,232 q -2.424,0 -3.6,-1.152 -1.176,-1.152 -1.176,-3.744 V 214.24 h 2.88 v 12.384 q 0,1.08 0.432,1.44 0.432,0.336 1.488,0.336 h 0.72 v 2.88 l -0.72,0.72 z"
         id="path116" />
      <path
         d="m 386.90397,223.192 0.192,0.096 q 1.224,-1.272 2.616,-1.824 1.392,-0.576 3.072,-0.576 2.832,0 4.248,1.56 1.416,1.536 1.416,4.296 0,2.712 -1.536,3.984 -1.536,1.272 -4.848,1.272 h -10.152 v -2.88 l 0.72,-0.72 h 1.08 l 0.6,-1.032 V 214.24 h 2.88 v 6.144 z m 5.16,5.208 q 1.152,0 1.896,-0.072 0.768,-0.096 1.224,-0.288 0.48,-0.216 0.672,-0.576 0.192,-0.36 0.192,-0.936 0,-1.032 -0.672,-1.536 -0.672,-0.504 -2.232,-0.504 h -0.72 q -1.08,0 -1.896,0.096 -0.816,0.072 -1.44,0.312 -0.624,0.24 -1.128,0.672 -0.504,0.432 -0.96,1.128 l -1.032,1.56 0.072,0.144 z"
         id="path118" />
      <path
         d="m 372.79196,234.16 h 0.96 q 2.184,0 3.192,-0.888 1.032,-0.888 1.008,-2.952 0,-0.552 -0.072,-1.152 -0.072,-0.624 -0.192,-1.32 l -0.504,-3.192 2.616,-0.408 0.36,2.232 q 0.096,0.528 0.144,1.008 0.072,0.48 0.12,0.912 h 2.208 v 2.88 l -0.72,0.72 h -1.488 q -0.408,2.664 -2.112,4.2 -1.68,1.56 -4.536,1.56 h -0.984 z"
         id="path120" />
      <path
         d="m 364.24797,214.24 h 2.88 V 232 h -2.88 z"
         id="path122" />
      <path
         d="m 355.19995,229.12 0.72,-0.72 h 1.056 q 0.912,0 1.2,-0.336 0.312,-0.36 0.312,-1.104 v -12.72 h 2.88 v 12.72 q 0,2.568 -1.008,3.792 -0.984,1.224 -3.384,1.248 h -1.776 z"
         id="path124" />
      <path
         d="m 340.60796,229.12 0.72,-0.72 h 2.088 q -0.024,-0.144 -0.024,-0.288 0,-0.144 0,-0.288 0,-2.904 3.36,-4.848 l 1.536,-0.888 h 3.168 l 1.896,5.088 q 0.264,0.744 0.648,0.984 0.408,0.24 1.2,0.24 h 0.72 v 2.88 l -0.72,0.72 q -1.584,0 -2.496,-0.48 -0.912,-0.504 -1.512,-1.56 l -0.144,0.024 V 232 h -3.048 q -1.752,0 -2.808,-0.696 -1.056,-0.72 -1.488,-1.8 h -0.216 q -0.672,2.496 -2.88,2.496 z m 4.968,-1.632 q 0,0.528 0.408,0.72 0.408,0.192 0.984,0.192 h 3.528 l -1.2,-3.168 -2.184,0.864 q -0.768,0.312 -1.152,0.648 -0.384,0.312 -0.384,0.744 z"
         id="path126" />
      <path
         d="m 330.09598,234.16 h 1.536 q 2.28,0 3.648,-0.576 1.392,-0.576 1.968,-1.584 h -2.784 q -1.944,0 -3.048,-1.128 -1.08,-1.152 -1.08,-3.192 0,-1.248 0.36,-2.304 0.384,-1.08 1.032,-1.848 0.672,-0.792 1.56,-1.224 0.912,-0.456 1.968,-0.456 2.184,0 3.456,1.728 1.272,1.728 1.392,4.824 h 1.224 v 2.88 l -0.72,0.72 h -0.816 q -0.672,2.76 -2.664,4.248 -1.968,1.512 -5.256,1.512 h -1.776 z m 2.64,-6.96 q 0,0.648 0.528,0.936 0.528,0.264 1.44,0.264 h 3 v -0.072 q 0,-1.296 -0.792,-2.088 -0.768,-0.792 -1.968,-0.792 -0.936,0 -1.584,0.504 -0.624,0.48 -0.624,1.248 z m -0.336,-9.216 h 1.008 l 0.024,-0.12 q -0.48,-0.528 -0.48,-1.272 0,-1.008 0.72,-1.656 0.744,-0.672 1.896,-0.672 0.696,0 1.344,0.288 0.648,0.288 1.128,0.792 l -1.152,1.608 q -0.576,-0.576 -1.32,-0.576 -0.408,0 -0.672,0.192 -0.24,0.192 -0.24,0.456 0,0.792 1.656,0.792 h 1.776 v 2.112 h -5.688 z"
         id="path128" />
      <path
         d="m 310.63199,229.12 0.72,-0.72 h 0.024 q 1.152,0 1.704,-0.264 0.576,-0.288 0.912,-0.984 l 0.936,-1.944 2.376,1.152 -0.84,1.752 q 0.576,0.264 1.176,0.456 0.6,0.168 1.224,0.168 1.032,0 1.488,-0.432 0.456,-0.456 0.456,-1.584 v -1.512 h 2.64 v 1.512 q 0,1.008 0.336,1.464 0.36,0.456 0.96,0.456 h 0.24 q 0.504,0 0.816,-0.36 0.312,-0.384 0.312,-1.2 0,-0.336 -0.072,-0.84 -0.072,-0.528 -0.192,-1.272 l -0.216,-1.224 2.616,-0.432 0.192,1.224 q 0.12,0.696 0.168,1.32 0.048,0.6 0.048,1.224 0,2.688 -0.936,3.96 -0.912,1.248 -2.856,1.248 -1.704,0 -2.568,-0.816 -0.864,-0.816 -1.176,-2.52 h -0.144 q -0.192,1.728 -0.864,2.544 -0.648,0.792 -1.728,0.792 -0.696,0 -1.392,-0.264 -0.672,-0.24 -1.776,-0.888 l -0.504,-0.288 q -0.744,0.72 -1.704,0.936 -0.936,0.216 -2.376,0.216 z"
         id="path130" />
      <path
         d="m 290.30399,229.12 0.72,-0.72 h 0.024 q 1.128,0 1.704,-0.264 0.576,-0.288 0.912,-0.984 l 0.936,-1.944 2.376,1.152 -0.84,1.776 q 0.576,0.264 1.176,0.432 0.6,0.168 1.224,0.168 1.032,0 1.488,-0.432 0.456,-0.456 0.456,-1.584 v -1.512 h 2.64 v 1.512 q 0,1.008 0.288,1.464 0.288,0.456 1.056,0.456 h 0.24 q 0.624,0 0.984,-0.456 0.384,-0.456 0.384,-1.464 v -2.472 h 2.64 v 2.472 q 0,1.68 1.68,1.68 h 0.96 v 2.88 l -0.72,0.72 q -1.824,0 -2.784,-0.72 -0.936,-0.744 -1.2,-2.328 h -0.144 q -0.144,1.728 -0.864,2.544 -0.72,0.792 -1.92,0.792 -1.272,0 -1.968,-0.792 -0.696,-0.816 -0.96,-2.544 h -0.144 q -0.192,1.728 -0.864,2.544 -0.648,0.792 -1.728,0.792 -0.696,0 -1.392,-0.264 -0.672,-0.24 -1.776,-0.888 l -0.48,-0.288 q -0.744,0.696 -1.704,0.936 -0.936,0.216 -2.4,0.216 z"
         id="path132" />
      <path
         d="m 282.38399,229.12 0.72,-0.72 h 0.72 q 1.92,0 1.92,-1.68 v -3.432 h 2.64 v 3.432 q 0,1.68 1.68,1.68 h 0.96 v 2.88 l -0.72,0.72 q -1.92,0 -2.928,-0.768 -0.984,-0.792 -1.32,-2.472 h -0.144 q -0.336,1.68 -1.152,2.472 -0.816,0.768 -2.376,0.768 z m 6.336,8.04 q -0.624,0 -1.032,-0.384 -0.384,-0.384 -0.384,-1.224 0,-0.84 0.384,-1.224 0.408,-0.384 1.032,-0.384 h 0.48 q 0.624,0 1.008,0.384 0.408,0.384 0.408,1.224 0,0.84 -0.408,1.224 -0.384,0.384 -1.008,0.384 z m -3.792,0 q -0.624,0 -1.032,-0.384 -0.384,-0.384 -0.384,-1.224 0,-0.84 0.384,-1.224 0.408,-0.384 1.032,-0.384 h 0.48 q 0.624,0 1.008,0.384 0.408,0.384 0.408,1.224 0,0.84 -0.408,1.224 -0.384,0.384 -1.008,0.384 z"
         id="path134" />
      <path
         d="m 282.38397,232 q -2.184,-0.024 -3.192,-1.056 -1.008,-1.056 -1.008,-2.88 v -0.12 h -0.144 q -0.192,0.84 -0.456,1.416 -0.24,0.576 -0.624,0.936 -0.384,0.336 -0.912,0.504 -0.528,0.144 -1.248,0.144 -1.728,0 -2.592,-0.912 -0.864,-0.936 -0.864,-2.616 0,-1.968 1.08,-3.192 1.104,-1.248 2.952,-2.16 l 2.688,-1.344 v -1.32 h 2.88 v 7.704 q 0,0.72 0.312,1.008 0.336,0.288 1.128,0.288 h 0.72 v 2.88 z m -6.792,-4.656 q 1.392,0 1.92,-0.264 0.552,-0.264 0.552,-0.96 v -2.88 l -1.776,0.84 q -0.648,0.312 -1.128,0.552 -0.456,0.24 -0.792,0.504 -0.312,0.24 -0.48,0.504 -0.144,0.264 -0.144,0.6 0,0.6 0.384,0.864 0.408,0.24 1.464,0.24 z m 3.696,-9.864 q -0.624,0 -1.032,-0.384 -0.384,-0.384 -0.384,-1.224 0,-0.84 0.384,-1.224 0.408,-0.384 1.032,-0.384 h 0.48 q 0.624,0 1.008,0.384 0.408,0.384 0.408,1.224 0,0.84 -0.408,1.224 -0.384,0.384 -1.008,0.384 z m -3.792,0 q -0.624,0 -1.032,-0.384 -0.384,-0.384 -0.384,-1.224 0,-0.84 0.384,-1.224 0.408,-0.384 1.032,-0.384 h 0.48 q 0.624,0 1.008,0.384 0.408,0.384 0.408,1.224 0,0.84 -0.408,1.224 -0.384,0.384 -1.008,0.384 z"
         id="path136" />
    </g>
  </g>
  <g
     transform="translate(238,260)"
     id="g82">
    <path
       id="rect78"
       style="fill:#fffdf7;fill-opacity:0.08;stroke:#fffdf7;stroke-opacity:0.16"
       d="m 17,0 h 210 c 9.418,0 17,7.582 17,17 0,9.418 -7.582,17 -17,17 H 17 C 7.582,34 0,26.418 0,17 0,7.582 7.582,0 17,0 Z" />
    <g
       aria-label="تحديد · تقييم · معالجة · متابعة"
       id="text80"
       style="font-weight:500;font-size:13px;font-family:'IBM Plex Sans Arabic';direction:rtl;text-anchor:middle;fill:#d8e0e6">
      <path
         d="m 197.43652,21.44 0.39,-0.39 h 0.377 q 0.468,0 0.767,-0.039 0.312,-0.039 0.494,-0.13 0.195,-0.104 0.26,-0.247 0.078,-0.156 0.078,-0.377 0,-0.195 -0.039,-0.494 -0.026,-0.312 -0.117,-0.806 l -0.221,-1.209 1.417,-0.234 0.195,1.209 q 0.065,0.351 0.104,0.78 0.039,0.429 0.039,0.754 0,1.417 -0.702,2.08 -0.689,0.663 -2.275,0.663 h -0.767 z m 3.393,-4.966 q -0.338,0 -0.559,-0.208 -0.208,-0.208 -0.208,-0.663 0,-0.455 0.208,-0.663 0.221,-0.208 0.559,-0.208 h 0.26 q 0.338,0 0.546,0.208 0.221,0.208 0.221,0.663 0,0.455 -0.221,0.663 -0.208,0.208 -0.546,0.208 z m -2.054,0 q -0.338,0 -0.559,-0.208 -0.208,-0.208 -0.208,-0.663 0,-0.455 0.208,-0.663 0.221,-0.208 0.559,-0.208 h 0.26 q 0.338,0 0.546,0.208 0.221,0.208 0.221,0.663 0,0.455 -0.221,0.663 -0.208,0.208 -0.546,0.208 z"
         id="path140" />
      <path
         d="m 188.70052,21.44 0.39,-0.39 h 0.897 q 0.728,0 1.3,-0.013 0.585,-0.026 1.105,-0.104 0.52,-0.078 1.014,-0.234 0.494,-0.156 1.053,-0.429 l 0.481,-0.234 v -0.065 l -2.08,-0.442 -1.963,-0.481 v 0.975 h -1.495 v -1.001 q 0,-0.923 0.39,-1.352 0.403,-0.429 1.222,-0.429 0.104,0 0.208,0.013 0.117,0.013 0.26,0.039 0.156,0.026 0.364,0.078 0.208,0.052 0.52,0.13 l 2.509,0.65 q 0.52,0.143 1.118,0.221 0.598,0.078 1.183,0.078 h 0.26 v 1.95 h -0.91 q 0.013,0.364 0.208,0.507 0.208,0.143 0.702,0.143 h 0.39 v 1.56 l -0.39,0.39 q -0.975,-0.013 -1.521,-0.442 -0.533,-0.442 -0.663,-1.365 l -0.052,0.039 q -0.858,0.585 -1.547,0.936 -0.676,0.338 -1.287,0.533 -0.611,0.182 -1.183,0.247 -0.572,0.052 -1.196,0.052 h -1.287 z"
         id="path142" />
      <path
         d="m 183.42251,23 q -0.91,0 -1.391,-0.455 -0.481,-0.455 -0.481,-1.456 v -0.871 h 1.495 v 0.832 h 1.781 q 0.429,0 0.624,-0.13 0.208,-0.13 0.208,-0.429 0,-0.143 -0.065,-0.338 -0.052,-0.195 -0.117,-0.39 l -1.144,-3.289 1.664,-0.585 1.313,3.757 q 0.143,0.429 0.286,0.702 0.143,0.273 0.299,0.429 0.169,0.156 0.351,0.221 0.195,0.052 0.455,0.052 h 0.39 v 1.56 l -0.39,0.39 q -0.546,0 -0.949,-0.078 -0.403,-0.078 -0.728,-0.286 -0.312,-0.208 -0.572,-0.546 -0.247,-0.338 -0.481,-0.871 l -0.052,0.026 q -0.078,0.468 -0.221,0.806 -0.13,0.338 -0.338,0.546 -0.208,0.208 -0.507,0.312 -0.299,0.091 -0.715,0.091 z"
         id="path144" />
      <path
         d="m 180.34151,25.795 q -0.338,0 -0.559,-0.208 -0.208,-0.208 -0.208,-0.663 0,-0.455 0.208,-0.663 0.221,-0.208 0.559,-0.208 h 0.26 q 0.338,0 0.546,0.208 0.221,0.208 0.221,0.663 0,0.455 -0.221,0.663 -0.208,0.208 -0.546,0.208 z m -2.054,0 q -0.338,0 -0.559,-0.208 -0.208,-0.208 -0.208,-0.663 0,-0.455 0.208,-0.663 0.221,-0.208 0.559,-0.208 h 0.26 q 0.338,0 0.546,0.208 0.221,0.208 0.221,0.663 0,0.455 -0.221,0.663 -0.208,0.208 -0.546,0.208 z m -1.261,-4.355 0.39,-0.39 h 0.377 q 0.468,0 0.767,-0.039 0.312,-0.039 0.494,-0.13 0.195,-0.104 0.26,-0.247 0.078,-0.156 0.078,-0.377 0,-0.195 -0.039,-0.494 -0.026,-0.312 -0.117,-0.806 l -0.221,-1.209 1.417,-0.234 0.195,1.209 q 0.065,0.351 0.104,0.78 0.039,0.429 0.039,0.754 0,1.417 -0.702,2.08 -0.689,0.663 -2.275,0.663 h -0.767 z"
         id="path146" />
      <path
         d="m 171.7485,23 q -0.91,0 -1.391,-0.455 -0.481,-0.455 -0.481,-1.456 v -0.871 h 1.495 v 0.832 h 1.781 q 0.429,0 0.624,-0.13 0.208,-0.13 0.208,-0.429 0,-0.143 -0.065,-0.338 -0.052,-0.195 -0.117,-0.39 l -1.144,-3.289 1.664,-0.585 1.313,3.757 q 0.143,0.429 0.286,0.702 0.143,0.273 0.299,0.429 0.169,0.156 0.351,0.221 0.195,0.052 0.455,0.052 h 0.39 v 1.56 l -0.39,0.39 q -0.546,0 -0.949,-0.078 -0.403,-0.078 -0.728,-0.286 -0.312,-0.208 -0.572,-0.546 -0.247,-0.338 -0.481,-0.871 l -0.052,0.026 q -0.078,0.468 -0.221,0.806 -0.13,0.338 -0.338,0.546 -0.208,0.208 -0.507,0.312 -0.299,0.091 -0.715,0.091 z"
         id="path148" />
      <path
         d="m 163.6763,17.680664 h 1.33936 v 1.612305 h -1.33936 z"
         id="path150" />
      <path
         d="m 155.08417,21.44 0.39,-0.39 h 0.377 q 0.468,0 0.767,-0.039 0.312,-0.039 0.494,-0.13 0.195,-0.104 0.26,-0.247 0.078,-0.156 0.078,-0.377 0,-0.195 -0.039,-0.494 -0.026,-0.312 -0.117,-0.806 l -0.221,-1.209 1.417,-0.234 0.195,1.209 q 0.065,0.351 0.104,0.78 0.039,0.429 0.039,0.754 0,1.417 -0.702,2.08 -0.689,0.663 -2.275,0.663 h -0.767 z m 3.393,-4.966 q -0.338,0 -0.559,-0.208 -0.208,-0.208 -0.208,-0.663 0,-0.455 0.208,-0.663 0.221,-0.208 0.559,-0.208 h 0.26 q 0.338,0 0.546,0.208 0.221,0.208 0.221,0.663 0,0.455 -0.221,0.663 -0.208,0.208 -0.546,0.208 z m -2.054,0 q -0.338,0 -0.559,-0.208 -0.208,-0.208 -0.208,-0.663 0,-0.455 0.208,-0.663 0.221,-0.208 0.559,-0.208 h 0.26 q 0.338,0 0.546,0.208 0.221,0.208 0.221,0.663 0,0.455 -0.221,0.663 -0.208,0.208 -0.546,0.208 z"
         id="path152" />
      <path
         d="m 148.81816,21.44 0.39,-0.39 h 1.391 l 0.026,-0.065 q -0.494,-0.494 -0.689,-1.04 -0.182,-0.559 -0.182,-1.079 0,-0.585 0.182,-1.092 0.182,-0.52 0.52,-0.897 0.338,-0.39 0.806,-0.611 0.481,-0.221 1.053,-0.221 0.572,0 1.04,0.221 0.481,0.221 0.819,0.611 0.338,0.377 0.52,0.897 0.182,0.507 0.182,1.092 0,0.52 -0.195,1.079 -0.182,0.546 -0.676,1.04 l 0.026,0.065 h 1.443 v 1.56 l -0.39,0.39 h -0.13 q -0.702,0 -1.365,-0.182 -0.663,-0.182 -1.261,-0.65 -0.598,0.468 -1.261,0.65 -0.663,0.182 -1.365,0.182 h -0.884 z m 3.497,-0.559 q 0.663,-0.377 1.001,-0.78 0.338,-0.416 0.338,-0.936 0,-0.546 -0.364,-0.858 -0.364,-0.312 -0.897,-0.312 h -0.156 q -0.533,0 -0.897,0.312 -0.364,0.312 -0.364,0.858 0,0.52 0.338,0.936 0.338,0.403 1.001,0.78 z m 0.897,-5.876 q -0.338,0 -0.559,-0.208 -0.208,-0.208 -0.208,-0.663 0,-0.455 0.208,-0.663 0.221,-0.208 0.559,-0.208 h 0.26 q 0.338,0 0.546,0.208 0.221,0.208 0.221,0.663 0,0.455 -0.221,0.663 -0.208,0.208 -0.546,0.208 z m -2.054,0 q -0.338,0 -0.559,-0.208 -0.208,-0.208 -0.208,-0.663 0,-0.455 0.208,-0.663 0.221,-0.208 0.559,-0.208 h 0.26 q 0.338,0 0.546,0.208 0.221,0.208 0.221,0.663 0,0.455 -0.221,0.663 -0.208,0.208 -0.546,0.208 z"
         id="path154" />
      <path
         d="m 144.52816,21.44 0.39,-0.39 h 0.39 q 1.04,0 1.04,-0.91 v -1.859 h 1.43 v 1.859 q 0,0.91 0.91,0.91 h 0.52 v 1.56 l -0.39,0.39 q -1.04,0 -1.586,-0.416 -0.533,-0.429 -0.715,-1.339 h -0.078 q -0.182,0.91 -0.624,1.339 -0.442,0.416 -1.287,0.416 z m 3.432,4.355 q -0.338,0 -0.559,-0.208 -0.208,-0.208 -0.208,-0.663 0,-0.455 0.208,-0.663 0.221,-0.208 0.559,-0.208 h 0.26 q 0.338,0 0.546,0.208 0.221,0.208 0.221,0.663 0,0.455 -0.221,0.663 -0.208,0.208 -0.546,0.208 z m -2.054,0 q -0.338,0 -0.559,-0.208 -0.208,-0.208 -0.208,-0.663 0,-0.455 0.208,-0.663 0.221,-0.208 0.559,-0.208 h 0.26 q 0.338,0 0.546,0.208 0.221,0.208 0.221,0.663 0,0.455 -0.221,0.663 -0.208,0.208 -0.546,0.208 z"
         id="path156" />
      <path
         d="m 140.23816,21.44 0.39,-0.39 h 0.39 q 1.04,0 1.04,-0.91 v -1.859 h 1.43 v 1.859 q 0,0.91 0.91,0.91 h 0.52 v 1.56 l -0.39,0.39 q -1.04,0 -1.586,-0.416 -0.533,-0.429 -0.715,-1.339 h -0.078 q -0.182,0.91 -0.624,1.339 -0.442,0.416 -1.287,0.416 z m 3.432,4.355 q -0.338,0 -0.559,-0.208 -0.208,-0.208 -0.208,-0.663 0,-0.455 0.208,-0.663 0.221,-0.208 0.559,-0.208 h 0.26 q 0.338,0 0.546,0.208 0.221,0.208 0.221,0.663 0,0.455 -0.221,0.663 -0.208,0.208 -0.546,0.208 z m -2.054,0 q -0.338,0 -0.559,-0.208 -0.208,-0.208 -0.208,-0.663 0,-0.455 0.208,-0.663 0.221,-0.208 0.559,-0.208 h 0.26 q 0.338,0 0.546,0.208 0.221,0.208 0.221,0.663 0,0.455 -0.221,0.663 -0.208,0.208 -0.546,0.208 z"
         id="path158" />
      <path
         d="m 131.87917,22.558 q 0,-0.832 0.091,-1.404 0.091,-0.572 0.312,-0.988 0.234,-0.416 0.624,-0.715 0.39,-0.299 0.988,-0.585 l 2.6,-1.235 h 1.716 l 1.027,2.756 q 0.143,0.403 0.351,0.533 0.221,0.13 0.65,0.13 h 0.39 v 1.56 l -0.39,0.39 q -0.858,0 -1.352,-0.26 -0.494,-0.273 -0.819,-0.845 l -0.078,0.013 V 23 h -2.197 q -0.793,0 -1.274,-0.39 -0.481,-0.403 -0.481,-1.027 0,-0.455 0.299,-0.858 l -0.052,-0.065 -0.299,0.13 q -0.169,0.078 -0.273,0.195 -0.104,0.104 -0.169,0.312 -0.052,0.195 -0.078,0.507 -0.026,0.299 -0.026,0.754 v 4.394 h -1.56 z m 3.146,-2.041 q 0,0.26 0.195,0.403 0.208,0.13 0.559,0.13 h 1.911 l -0.65,-1.716 -1.365,0.546 q -0.65,0.26 -0.65,0.637 z"
         id="path160" />
      <path
         d="m 125.54898,17.680664 h 1.33936 v 1.612305 h -1.33936 z"
         id="path162" />
      <path
         d="m 115.92985,22.272 q -0.299,0.403 -0.754,0.572 -0.442,0.156 -1.157,0.156 v -1.56 l 0.39,-0.39 q 0.481,0 0.702,-0.143 0.221,-0.143 0.364,-0.507 l 0.364,-0.897 q 0.169,-0.416 0.377,-0.78 0.208,-0.364 0.494,-0.637 0.286,-0.273 0.637,-0.429 0.364,-0.156 0.832,-0.156 1.222,0 1.833,0.962 0.624,0.962 0.624,2.665 v 0.377 l -1.235,1.833 z m 0.715,-1.807 2.613,0.793 v -0.13 q 0,-0.78 -0.377,-1.222 -0.377,-0.442 -1.027,-0.442 -0.416,0 -0.728,0.221 -0.299,0.221 -0.455,0.702 z"
         id="path164" />
      <path
         d="m 107.41486,21.44 0.39,-0.39 h 1.69 l 0.026,-0.065 -1.261,-1.547 v -2.015 q 0.65,-0.299 1.365,-0.455 0.728,-0.169 1.417,-0.169 1.508,0 2.21,0.533 0.702,0.533 0.702,1.677 0,0.351 -0.065,0.624 -0.065,0.26 -0.208,0.494 -0.13,0.221 -0.351,0.429 -0.208,0.208 -0.52,0.455 l 0.013,0.039 h 1.586 v 1.56 l -0.39,0.39 h -0.13 q -0.702,0 -1.456,-0.156 -0.741,-0.169 -1.339,-0.546 -0.598,0.377 -1.261,0.546 -0.663,0.156 -1.365,0.156 h -1.053 z m 2.093,-2.444 1.69,1.989 0.793,-0.65 q 0.182,-0.156 0.312,-0.26 0.13,-0.104 0.208,-0.195 0.078,-0.104 0.104,-0.195 0.039,-0.104 0.039,-0.247 0,-0.377 -0.364,-0.533 -0.351,-0.156 -1.248,-0.156 -0.403,0 -0.819,0.052 -0.416,0.052 -0.715,0.117 z"
         id="path166" />
      <path
         d="m 107.40185,23 q -1.313,0 -1.95,-0.624 -0.637,-0.624 -0.637,-2.028 V 13.38 h 1.56 v 6.708 q 0,0.585 0.234,0.78 0.234,0.182 0.806,0.182 h 0.39 v 1.56 l -0.39,0.39 z"
         id="path168" />
      <path
         d="m 99.913835,21.44 0.389995,-0.39 h 0.572 q 0.494,0 0.65,-0.182 0.169,-0.195 0.169,-0.598 v -6.89 h 1.56 v 6.89 q 0,1.391 -0.546,2.054 -0.533,0.663 -1.833,0.676 h -0.961995 z"
         id="path170" />
      <path
         d="m 91.177823,21.44 0.39,-0.39 h 0.897 q 0.728,0 1.3,-0.013 0.585,-0.026 1.105,-0.104 0.52,-0.078 1.014,-0.234 0.494,-0.156 1.053,-0.429 l 0.481,-0.234 v -0.065 l -2.08,-0.442 -1.963,-0.481 v 0.975 h -1.495 v -1.001 q 0,-0.923 0.39,-1.352 0.403,-0.429 1.222,-0.429 0.104,0 0.208,0.013 0.117,0.013 0.26,0.039 0.156,0.026 0.364,0.078 0.208,0.052 0.52,0.13 l 2.509,0.65 q 0.52,0.143 1.118,0.221 0.598,0.078 1.183,0.078 h 0.26 v 1.95 h -0.91 q 0.013,0.364 0.208,0.507 0.208,0.143 0.702,0.143 h 0.389997 v 1.56 L 99.913823,23 q -0.975,-0.013 -1.521,-0.442 -0.533,-0.442 -0.663,-1.365 l -0.052,0.039 q -0.858,0.585 -1.547,0.936 -0.676,0.338 -1.287,0.533 -0.611,0.182 -1.183,0.247 -0.572,0.052 -1.196,0.052 h -1.287 z m 4.485,4.355 q -0.338,0 -0.559,-0.208 -0.208,-0.208 -0.208,-0.663 0,-0.455 0.208,-0.663 0.221,-0.208 0.559,-0.208 h 0.26 q 0.338,0 0.546,0.208 0.221,0.208 0.221,0.663 0,0.455 -0.221,0.663 -0.208,0.208 -0.546,0.208 z"
         id="path172" />
      <path
         d="m 91.177813,23 q -1.183,-0.013 -1.729,-0.572 -0.546,-0.572 -0.546,-1.56 v -0.065 h -0.078 q -0.104,0.455 -0.247,0.767 -0.13,0.312 -0.338,0.507 -0.208,0.182 -0.494,0.273 -0.286,0.078 -0.676,0.078 -0.936,0 -1.404,-0.494 -0.468,-0.507 -0.468,-1.417 0,-1.066 0.585,-1.729 0.598,-0.676 1.599,-1.17 l 1.456,-0.728 v -0.715 h 1.56 v 4.173 q 0,0.39 0.169,0.546 0.182,0.156 0.611,0.156 h 0.39 v 1.56 z m -3.679,-2.522 q 0.754,0 1.04,-0.143 0.299,-0.143 0.299,-0.52 v -1.56 l -0.962,0.455 q -0.351,0.169 -0.611,0.299 -0.247,0.13 -0.429,0.273 -0.169,0.13 -0.26,0.273 -0.078,0.143 -0.078,0.325 0,0.325 0.208,0.468 0.221,0.13 0.793,0.13 z m 2.002,-5.343 q -0.338,0 -0.559,-0.208 -0.208,-0.208 -0.208,-0.663 0,-0.455 0.208,-0.663 0.221,-0.208 0.559,-0.208 h 0.26 q 0.338,0 0.546,0.208 0.221,0.208 0.221,0.663 0,0.455 -0.221,0.663 -0.208,0.208 -0.546,0.208 z m -2.054,0 q -0.338,0 -0.559,-0.208 -0.208,-0.208 -0.208,-0.663 0,-0.455 0.208,-0.663 0.221,-0.208 0.559,-0.208 h 0.26 q 0.338,0 0.546,0.208 0.221,0.208 0.221,0.663 0,0.455 -0.221,0.663 -0.208,0.208 -0.546,0.208 z"
         id="path174" />
      <path
         d="m 78.867624,17.680664 h 1.339356 v 1.612305 h -1.339356 z"
         id="path176" />
      <path
         d="m 69.248489,22.272 q -0.299,0.403 -0.754,0.572 -0.442,0.156 -1.157,0.156 v -1.56 l 0.39,-0.39 q 0.481,0 0.702,-0.143 0.221,-0.143 0.364,-0.507 l 0.364,-0.897 q 0.169,-0.416 0.377,-0.78 0.208,-0.364 0.494,-0.637 0.286,-0.273 0.637,-0.429 0.364,-0.156 0.832,-0.156 1.222,0 1.833,0.962 0.624,0.962 0.624,2.665 v 0.377 l -1.235,1.833 z m 0.715,-1.807 2.613,0.793 v -0.13 q 0,-0.78 -0.377,-1.222 -0.377,-0.442 -1.027,-0.442 -0.416,0 -0.728,0.221 -0.299,0.221 -0.455,0.702 z"
         id="path178" />
      <path
         d="m 63.04749,21.44 0.39,-0.39 h 0.39 q 1.04,0 1.04,-0.91 v -1.859 h 1.43 v 1.859 q 0,0.91 0.91,0.91 h 0.52 v 1.56 l -0.39,0.39 q -1.04,0 -1.586,-0.416 -0.533,-0.429 -0.715,-1.339 h -0.078 q -0.182,0.91 -0.624,1.339 -0.442,0.416 -1.287,0.416 z m 3.432,-4.199 q -0.338,0 -0.559,-0.208 -0.208,-0.208 -0.208,-0.663 0,-0.455 0.208,-0.663 0.221,-0.208 0.559,-0.208 h 0.26 q 0.338,0 0.546,0.208 0.221,0.208 0.221,0.663 0,0.455 -0.221,0.663 -0.208,0.208 -0.546,0.208 z m -2.054,0 q -0.338,0 -0.559,-0.208 -0.208,-0.208 -0.208,-0.663 0,-0.455 0.208,-0.663 0.221,-0.208 0.559,-0.208 h 0.26 q 0.338,0 0.546,0.208 0.221,0.208 0.221,0.663 0,0.455 -0.221,0.663 -0.208,0.208 -0.546,0.208 z"
         id="path180" />
      <path
         d="m 63.034479,23 q -1.313,0 -1.95,-0.624 -0.637,-0.624 -0.637,-2.028 V 13.38 h 1.56 v 6.708 q 0,0.585 0.234,0.78 0.234,0.182 0.806,0.182 h 0.39 v 1.56 l -0.39,0.39 z"
         id="path182" />
      <path
         d="m 55.533477,21.44 0.39,-0.39 h 0.377 q 0.468,0 0.767,-0.039 0.312,-0.039 0.494,-0.13 0.195,-0.104 0.26,-0.247 0.078,-0.156 0.078,-0.377 0,-0.195 -0.039,-0.494 -0.026,-0.312 -0.117,-0.806 l -0.221,-1.209 1.417,-0.234 0.195,1.209 q 0.065,0.351 0.104,0.78 0.039,0.429 0.039,0.754 0,1.417 -0.702,2.08 -0.689,0.663 -2.275,0.663 h -0.767 z m 2.275,4.355 q -0.338,0 -0.559,-0.208 -0.208,-0.208 -0.208,-0.663 0,-0.455 0.208,-0.663 0.221,-0.208 0.559,-0.208 h 0.26 q 0.338,0 0.546,0.208 0.221,0.208 0.221,0.663 0,0.455 -0.221,0.663 -0.208,0.208 -0.546,0.208 z"
         id="path184" />
      <path
         d="m 48.929485,21.44 0.39,-0.39 h 1.69 l 0.026,-0.065 -1.261,-1.547 v -2.015 q 0.65,-0.299 1.365,-0.455 0.728,-0.169 1.417,-0.169 1.508,0 2.21,0.533 0.702,0.533 0.702,1.677 0,0.351 -0.065,0.624 -0.065,0.26 -0.208,0.494 -0.13,0.221 -0.351,0.429 -0.208,0.208 -0.52,0.455 l 0.013,0.039 h 1.586 v 1.56 l -0.39,0.39 h -0.13 q -0.702,0 -1.456,-0.156 -0.741,-0.169 -1.339,-0.546 -0.598,0.377 -1.261,0.546 -0.663,0.156 -1.365,0.156 h -1.053 z m 2.093,-2.444 1.69,1.989 0.793,-0.65 q 0.182,-0.156 0.312,-0.26 0.13,-0.104 0.208,-0.195 0.078,-0.104 0.104,-0.195 0.039,-0.104 0.039,-0.247 0,-0.377 -0.364,-0.533 -0.351,-0.156 -1.248,-0.156 -0.403,0 -0.819,0.052 -0.416,0.052 -0.715,0.117 z"
         id="path186" />
      <path
         d="m 48.929476,23 q -1.183,-0.013 -1.729,-0.572 -0.546,-0.572 -0.546,-1.56 v -0.065 h -0.078 q -0.104,0.455 -0.247,0.767 -0.13,0.312 -0.338,0.507 -0.208,0.182 -0.494,0.273 -0.286,0.078 -0.676,0.078 -0.936,0 -1.404,-0.494 -0.468,-0.507 -0.468,-1.417 0,-1.066 0.585,-1.729 0.598,-0.676 1.599,-1.17 l 1.456,-0.728 v -0.715 h 1.56 v 4.173 q 0,0.39 0.169,0.546 0.182,0.156 0.611,0.156 h 0.39 v 1.56 z m -3.679,-2.522 q 0.754,0 1.04,-0.143 0.299,-0.143 0.299,-0.52 v -1.56 l -0.962,0.455 q -0.351,0.169 -0.611,0.299 -0.247,0.13 -0.429,0.273 -0.169,0.13 -0.26,0.273 -0.078,0.143 -0.078,0.325 0,0.325 0.208,0.468 0.221,0.13 0.793,0.13 z m 2.002,-5.343 q -0.338,0 -0.559,-0.208 -0.208,-0.208 -0.208,-0.663 0,-0.455 0.208,-0.663 0.221,-0.208 0.559,-0.208 h 0.26 q 0.338,0 0.546,0.208 0.221,0.208 0.221,0.663 0,0.455 -0.221,0.663 -0.208,0.208 -0.546,0.208 z m -2.054,0 q -0.338,0 -0.559,-0.208 -0.208,-0.208 -0.208,-0.663 0,-0.455 0.208,-0.663 0.221,-0.208 0.559,-0.208 h 0.26 q 0.338,0 0.546,0.208 0.221,0.208 0.221,0.663 0,0.455 -0.221,0.663 -0.208,0.208 -0.546,0.208 z"
         id="path188" />
    </g>
  </g>
</svg>
